HIERARCHY
ROOT Hips
{
     OFFSET 21.40860 98.03510 45.86580
     CHANNELS 6 Xposition Yposition Zposition Zrotation Xrotation Yrotation
     JOINT Spine
     {
          OFFSET -0.00000 11.89050 0.00000
          CHANNELS 3 Zrotation Xrotation Yrotation
          JOINT Spine1
          {
               OFFSET -0.00000 25.65740 0.12766
               CHANNELS 3 Zrotation Xrotation Yrotation
               JOINT HEad
               {
                    OFFSET 0.00000 8.73416 0.01134
                    CHANNELS 3 Zrotation Xrotation Yrotation
                    End Site
                    {
                         OFFSET -0.29000 12.77420 2.51395
                    }
               }
               JOINT LeftShoulder1
               {
                    OFFSET 8.99000 -0.36225 -0.22000
                    CHANNELS 3 Zrotation Xrotation Yrotation
                    JOINT LeftArm
                    {
                         OFFSET 10.28270 -0.00338 0.32212
                         CHANNELS 3 Zrotation Xrotation Yrotation
                         JOINT LeftForeArm
                         {
                              OFFSET 32.76690 0.09914 -1.42434
                              CHANNELS 3 Zrotation Xrotation Yrotation
                              JOINT LeftHand
                              {
                                   OFFSET 27.56430 0.08536 1.02216
                                   CHANNELS 3 Zrotation Xrotation Yrotation
                                   End Site
                                   {
                                        OFFSET 16.74430 -0.60000 1.50291
                                   }
                              }
                         }
                    }
               }
               JOINT RightShoulder
               {
                    OFFSET -8.99000 -0.36225 -0.22000
                    CHANNELS 3 Zrotation Xrotation Yrotation
                    JOINT RightArm
                    {
                         OFFSET -10.28270 -0.00338 0.32212
                         CHANNELS 3 Zrotation Xrotation Yrotation
                         JOINT RightForeArm
                         {
                              OFFSET -32.89710 0.09914 -1.42434
                              CHANNELS 3 Zrotation Xrotation Yrotation
                              JOINT RightHand
                              {
                                   OFFSET -27.49210 0.08536 1.02216
                                   CHANNELS 3 Zrotation Xrotation Yrotation
                                   End Site
                                   {
                                        OFFSET -16.63120 -0.60000 1.50291
                                   }
                              }
                         }
                    }
               }
          }
     }
     JOINT LeftUpLeg
     {
          OFFSET 8.94580 -8.66707 0.10165
          CHANNELS 3 Zrotation Xrotation Yrotation
          JOINT LeftLeg
          {
               OFFSET -0.00000 -44.42270 1.37270
               CHANNELS 3 Zrotation Xrotation Yrotation
               JOINT LeftFoot
               {
                    OFFSET -0.25355 -42.09240 -1.46059
                    CHANNELS 3 Zrotation Xrotation Yrotation
                    JOINT LeftToes
                    {
                         OFFSET -0.04000 -4.41509 8.49910
                         CHANNELS 3 Zrotation Xrotation Yrotation
                         End Site
                         {
                              OFFSET 0.08000 -0.04745 9.77979
                         }
                    }
               }
          }
     }
     JOINT RightUpLeg
     {
          OFFSET -8.94580 -8.66707 0.10165
          CHANNELS 3 Zrotation Xrotation Yrotation
          JOINT RightLeg
          {
               OFFSET -0.00000 -44.42270 1.37270
               CHANNELS 3 Zrotation Xrotation Yrotation
               JOINT RightFoot
               {
                    OFFSET 0.25355 -42.09240 -1.46059
                    CHANNELS 3 Zrotation Xrotation Yrotation
                    JOINT RightToes
                    {
                         OFFSET 0.04000 -4.41509 8.49910
                         CHANNELS 3 Zrotation Xrotation Yrotation
                         End Site
                         {
                              OFFSET -0.08000 -0.13745 9.77979
                         }
                    }
               }
          }
     }
}
MOTION
Frames: 8
Frame Time: 0.01667
95.21740 98.98730 51.57150 1.33574 -2.51454 -37.23250 1.17259 3.86732 1.02363 3.28831 7.61590 2.24900 -8.89461 -2.45961 14.94590 -0.00000 -0.00000 0.00000 -102.36500 -39.16880 -104.31000 -27.46840 20.23210 -70.20430 11.51000 7.52095 -20.73850 5.10278 1.12872 9.38569 66.91390 -5.76554 92.96850 37.95260 5.95692 57.04060 -11.82350 6.34545 31.44260 2.00852 -17.69420 -11.31360 0.58712 17.79980 4.04387 2.05014 -0.84868 -0.13258 -1.50270 -0.14276 7.43087 -15.14940 9.53066 -20.38240 -0.24407 13.93860 -4.25963 12.25820 -11.07290 0.17675 0.93207 -12.66870 5.31489 
95.14490 98.97870 51.54290 1.31422 -2.45499 -37.13110 1.11691 3.84751 1.03565 3.18048 7.57412 2.28325 -8.72755 -2.37029 14.97180 -0.00000 -0.00000 0.00000 -102.18000 -39.09230 -104.19100 -27.63220 20.09520 -70.05900 11.69560 7.45063 -21.02920 5.32369 1.15630 9.44928 66.74290 -5.80074 92.93310 38.08310 5.89893 57.02890 -11.75550 6.36941 31.42440 2.08997 -17.76660 -11.35010 0.58951 17.87030 3.96530 1.90876 -0.95308 -0.12180 -1.56343 0.01610 7.50859 -15.08580 9.52137 -20.28350 -0.10110 14.02190 -4.47285 12.17650 -11.05230 0.17217 0.95565 -12.86450 5.34988 
95.07150 98.97110 51.52380 1.26778 -2.38669 -37.07270 1.07031 3.83436 1.06858 3.11525 7.54451 2.35463 -8.56889 -2.16167 14.97730 -0.00000 -0.00000 0.00000 -102.40600 -39.03920 -104.20700 -27.87320 20.32860 -69.89200 11.95570 7.36550 -21.28830 5.51424 1.17589 9.45661 66.59080 -5.79983 92.86350 38.21480 5.88562 57.03950 -11.71560 6.38459 31.40270 2.23287 -17.84320 -11.43030 0.50633 17.97550 3.98320 1.83945 -1.03969 -0.11582 -1.59828 0.07361 7.59720 -14.98950 9.52516 -20.22490 0.00469 14.06640 -4.59691 12.11730 -11.03040 0.16816 0.97630 -13.03080 5.36251 
94.99210 98.96530 51.51770 1.21942 -2.31735 -37.04190 1.04235 3.82647 1.11020 3.09161 7.52607 2.43913 -8.45259 -1.92289 15.01370 -0.00000 -0.00000 0.00000 -103.10300 -39.01540 -104.41100 -28.17590 20.92310 -69.74520 12.19040 7.29912 -21.41190 5.58498 1.18157 9.44226 66.49510 -5.76489 92.76040 38.26930 5.92322 57.06550 -11.73150 6.37877 31.40920 2.40560 -17.91660 -11.54140 0.35671 18.08910 4.06047 1.85724 -1.09814 -0.11556 -1.61618 0.05272 7.70941 -14.88390 9.54069 -20.20550 0.08088 14.07810 -4.64177 12.06180 -11.02140 0.16558 0.99272 -13.15510 5.33819 
94.90610 98.96150 51.52320 1.18525 -2.25483 -37.02250 1.03074 3.81934 1.14885 3.08739 7.51100 2.51576 -8.41518 -1.72888 15.08590 -0.00000 -0.00000 0.00000 -104.12000 -39.02280 -104.76800 -28.53560 21.72740 -69.63880 12.31040 7.27836 -21.34850 5.55612 1.17825 9.43728 66.42350 -5.71148 92.61900 38.21650 6.01054 57.10890 -11.80590 6.34902 31.46270 2.56974 -17.98100 -11.64240 0.19420 18.19390 4.15090 1.89864 -1.14877 -0.11679 -1.62889 0.02179 7.81060 -14.79270 9.56155 -20.20040 0.14537 14.07700 -4.65225 12.00230 -11.03130 0.16478 1.00468 -13.23900 5.28943 
94.81580 98.95920 51.53430 1.16350 -2.21156 -36.99830 1.02233 3.81471 1.17799 3.07312 7.50251 2.57388 -8.47274 -1.60014 15.16210 -0.00000 -0.00000 0.00000 -105.17500 -39.05380 -105.16400 -28.92340 22.53980 -69.58940 12.29940 7.30324 -21.13690 5.52128 1.17485 9.43787 66.31970 -5.64549 92.45080 38.06890 6.14449 57.16550 -11.92640 6.30008 31.55400 2.69808 -18.02300 -11.69460 0.07444 18.27840 4.22045 1.90685 -1.19195 -0.11628 -1.62684 0.00112 7.82846 -14.72930 9.59321 -20.18390 0.22042 14.08470 -4.67966 11.93630 -11.05720 0.16538 1.01332 -13.29670 5.23860 
94.72430 98.95680 51.54260 1.14141 -2.19658 -36.96060 1.00639 3.81907 1.19874 3.03488 7.51256 2.61731 -8.59828 -1.51844 15.21420 -0.00000 -0.00000 0.00000 -106.02400 -39.09910 -105.48500 -29.28870 23.20980 -69.58170 12.21920 7.34626 -20.90000 5.53915 1.17527 9.42332 66.17550 -5.57100 92.27840 37.87660 6.30826 57.22230 -12.07170 6.24294 31.64460 2.78737 -18.03120 -11.68470 0.01946 18.33840 4.25902 1.89024 -1.20529 -0.11504 -1.59157 -0.03392 7.70832 -14.68960 9.64377 -20.14360 0.31394 14.11350 -4.75093 11.85680 -11.08080 0.16531 1.02406 -13.37330 5.19667 
94.63580 98.95270 51.54350 1.10877 -2.20397 -36.91110 0.98399 3.83255 1.21830 2.98339 7.54057 2.66159 -8.74170 -1.45830 15.22940 -0.00000 -0.00000 0.00000 -106.54900 -39.15510 -105.66600 -29.59780 23.66680 -69.56110 12.14670 7.37564 -20.77390 5.59446 1.17774 9.39121 66.03560 -5.51470 92.10670 37.72290 6.46350 57.26130 -12.19520 6.19711 31.69480 2.85419 -18.01830 -11.62980 0.00989 18.39200 4.27190 1.88632 -1.19506 -0.11505 -1.53320 -0.07153 7.48137 -14.65450 9.70650 -20.07980 0.40832 14.16630 -4.86634 11.77710 -11.08330 0.16312 1.04125 -13.50680 5.17822 
